PathFileType	4	(X/Y/Z)	..\data\SUBJ01\static\static.trc
DataRate	CameraRate	NumFrames	NumMarkers	Units	OrigDataRate	OrigDataStartFrame	OrigNumFrames
100.000000	100.000000	4	33	mm	100.000000	61	82
Frame#	Time	LFHD			RFHD			LBHD			RBHD			C7			T10			CLAV			STRN			LSHO			LELB			LWRA			LWRB			LFIN			RSHO			RELB			RWRA			RWRB			RFIN			LASI			RASI			SACR			LTHI			LKNE			LTIB			LANK			LHEE			LTOE			RTHI			RKNE			RTIB			RANK			RHEE			RTOE			
		X1	Y1	Z1	X2	Y2	Z2	X3	Y3	Z3	X4	Y4	Z4	X5	Y5	Z5	X6	Y6	Z6	X7	Y7	Z7	X8	Y8	Z8	X9	Y9	Z9	X10	Y10	Z10	X11	Y11	Z11	X12	Y12	Z12	X13	Y13	Z13	X14	Y14	Z14	X15	Y15	Z15	X16	Y16	Z16	X17	Y17	Z17	X18	Y18	Z18	X19	Y19	Z19	X20	Y20	Z20	X21	Y21	Z21	X22	Y22	Z22	X23	Y23	Z23	X24	Y24	Z24	X25	Y25	Z25	X26	Y26	Z26	X27	Y27	Z27	X28	Y28	Z28	X29	Y29	Z29	X30	Y30	Z30	X31	Y31	Z31	X32	Y32	Z32	X33	Y33	Z33	

62	0.61	-131.4288024902344	1571.791870117188	-205.9564361572266	-159.8619537353516	1540.870361328125	-87.6518020629883	-271.2888183593751	1481.04296875	-245.866683959961	-298.0122070312501	1456.037719726563	-118.2863540649414	-317.7192687988282	1368.874145507813	-173.5099334716797	-370.4315490722657	1144.25	-181.9113006591797	-165.0543975830078	1278.363891601563	-184.072006225586	-97.27833557128909	1125.594360351563	-181.1043395996094	-242.0522460937501	1316.074584960938	-351.0409851074219	-160.1690216064453	1093.33935546875	-510.944061279297	-49.1643753051758	883.1326904296877	-568.7635498046876	-49.20912170410158	917.1937255859377	-626.6173706054689	-19.08183479309082	814.2478027343752	-621.1193847656251	-231.6875610351563	1308.181762695313	-6.817368984222414	-202.3261413574219	1093.319458007813	178.6095428466797	-157.21826171875	849.648620605469	242.7652282714844	-157.2744140625	898.2317504882815	306.7030029296876	-127.2772293090821	791.4973144531252	294.9268493652344	-155.1018676757813	885.536560058594	-315.0495605468751	-159.0452117919922	889.051940917969	-33.47884750366212	-331.7621154785157	886.2109375000002	-172.8607788085938	-248.2533264160157	619.8307495117189	-383.5745849609376	-236.6252136230469	438.8914489746095	-301.9845581054688	-274.5603637695313	199.9877624511719	-331.5847167968751	-256.8880004882813	67.23174285888673	-270.2764892578126	-314.8944396972657	52.91005706787111	-228.8642730712891	-148.4388275146485	49.16231536865236	-244.218490600586	-220.821029663086	599.8414916992189	12.24507236480713	-225.7378387451172	445.5779113769532	-52.15809249877931	-247.3065338134766	190.015853881836	-27.89432525634766	-268.7630004882813	67.71276855468751	-85.50964355468751	-317.1192626953126	59.15304565429689	-142.773422241211	-154.8699951171875	47.69047546386719	-95.74757385253908	
63	0.62	-131.5350341796875	1571.809692382813	-206.0170440673829	-159.827621459961	1540.853149414063	-87.67264556884767	-271.3261718750001	1481.079833984375	-245.8239898681641	-298.0146789550782	1456.022216796875	-118.2542724609375	-317.8315124511719	1368.8583984375	-173.4798889160157	-370.5289001464844	1144.304443359375	-181.8203430175782	-165.0778503417969	1278.37451171875	-184.0705718994141	-97.32496643066409	1125.58837890625	-181.0499725341797	-241.8829650878907	1316.4736328125	-350.9906616210938	-160.2551422119141	1093.300415039063	-510.8795471191407	-49.07860565185548	883.1248779296877	-568.6988525390626	-49.12075424194337	917.2142333984377	-626.5208740234376	-18.87402725219727	814.3104248046877	-620.9865112304689	-231.7016601562501	1308.15283203125	-6.797604560852053	-202.4388275146485	1093.30078125	178.585205078125	-157.2125244140625	849.6729736328127	242.8046417236329	-157.380599975586	898.2550048828127	306.8080139160157	-127.3571548461914	791.498229980469	295.1112976074219	-155.1684112548828	885.5471191406252	-314.9697265625001	-159.1755981445313	889.126647949219	-33.38153076171876	-331.7796936035157	886.201843261719	-172.8099060058594	-248.2306060791016	619.8660888671876	-383.4739685058594	-236.6074371337891	438.8721618652345	-301.9451293945313	-274.6235351562501	199.9742279052735	-331.6352539062501	-256.9013061523438	67.16049194335939	-270.2608947753907	-314.8632202148438	52.88132858276369	-228.836654663086	-148.3718719482422	49.12069702148439	-244.1549987792969	-220.9000091552735	599.9380493164064	12.3175630569458	-225.8025512695313	445.6900939941407	-52.10081863403322	-247.317367553711	190.008041381836	-27.87965202331544	-268.7501831054688	67.69874572753908	-85.51770019531251	-317.1199951171876	59.1530227661133	-142.7736968994141	-154.8726501464844	47.68648147583009	-95.74011230468751	
64	0.63	-131.5650634765625	1571.728637695313	-205.7831573486329	-159.8453674316407	1540.870361328125	-87.64183044433595	-271.4346008300782	1481.079223632813	-245.793441772461	-298.0418395996094	1456.060791015625	-118.2310028076172	-317.8558654785157	1368.925170898438	-173.4195098876953	-370.6127319335938	1144.274536132813	-181.814208984375	-165.0689086914063	1278.378784179688	-184.0714569091797	-97.36621856689456	1125.603759765625	-181.0223083496094	-242.1192321777344	1316.08740234375	-350.9379577636719	-160.2550048828125	1093.311401367188	-510.8758850097657	-48.99744033813478	883.154479980469	-568.5762329101564	-49.1157913208008	917.202331542969	-626.4526977539064	-18.77720260620118	814.325866699219	-620.9531250000001	-231.8043975830079	1308.200927734375	-6.787680625915529	-202.5198974609376	1093.309204101563	178.6365814208985	-157.452377319336	849.6365356445315	242.773178100586	-157.5603485107422	898.2891845703127	306.8106384277344	-127.4302673339844	791.5104980468752	295.1525573730469	-155.2406768798828	885.5620117187502	-315.0176391601563	-159.1396484375	889.0460205078127	-33.49303817749024	-331.7675781250001	886.2459716796877	-172.7882995605469	-248.3333740234376	619.8392333984376	-383.4723510742188	-236.6170501708985	438.8721618652345	-301.8907470703126	-274.6300354003907	199.9755401611329	-331.6468505859376	-256.8792419433594	67.20312500000001	-270.2482604980469	-314.8724670410157	52.90636062622072	-228.8173065185547	-148.3574371337891	49.11923599243165	-244.1606903076172	-220.8720703125001	599.8632812500001	12.30783748626709	-225.8440246582032	445.6968994140626	-52.15770721435548	-247.2943572998047	189.9918823242188	-27.90222930908204	-268.7342834472657	67.72798919677736	-85.57872009277345	-317.1176147460938	59.15575790405275	-142.773178100586	-154.8968658447266	47.73311233520509	-95.71465301513673	
65	0.64	-131.6387939453125	1571.784912109375	-205.7854766845704	-159.9632110595703	1540.89306640625	-87.55698394775392	-271.5177001953126	1481.050659179688	-245.7300262451172	-298.1212463378907	1456.071899414063	-118.1896438598633	-317.9201660156251	1368.93212890625	-173.3731231689453	-370.6157226562501	1144.31689453125	-181.7779846191407	-165.13134765625	1278.397338867188	-184.0031433105469	-97.47830200195315	1125.620239257813	-181.0435943603516	-242.2176666259766	1316.074829101563	-351.0127563476563	-160.2462768554688	1093.316650390625	-510.8526916503907	-49.01571273803712	883.1387329101565	-568.4473876953126	-48.98567962646486	917.176452636719	-626.2955932617189	-18.77543830871582	814.2991333007815	-620.7788085937501	-231.8658447265626	1308.218994140625	-6.820853710174562	-202.5404052734376	1093.355346679688	178.6613159179688	-157.5667114257813	849.6875610351565	242.8320312500001	-157.6351165771485	898.253112792969	306.8444213867188	-127.5351104736328	791.5241699218752	295.2199096679688	-155.2692565917969	885.5750122070315	-314.9790954589844	-159.0999298095703	889.0261840820315	-33.52135467529298	-331.8437194824219	886.2593383789065	-172.752670288086	-248.3367614746094	619.8688964843751	-383.4715881347657	-236.6670074462891	438.8809509277345	-301.8913879394532	-274.6289367675782	200.0609436035157	-331.6330261230469	-256.8507385253907	67.24403381347658	-270.2114868164063	-314.8619079589844	52.88165283203126	-228.8339080810547	-148.3674468994141	49.12990570068361	-244.1805572509766	-220.9373016357422	599.9002075195314	12.37113380432129	-225.8606567382813	445.7115478515626	-52.13424682617189	-247.3340301513672	189.9495391845703	-27.88300514221192	-268.6590270996094	67.83264923095705	-85.49742126464845	-317.1105651855469	59.16056060791017	-142.7723693847657	-154.9054107666016	47.67642211914063	-95.70811462402345	
